<svg version="1.1" id="Layer_1" xmlns="http://www.w3.org/2000/svg" xmlns:xlink="http://www.w3.org/1999/xlink" x="0px" y="0px"
	 viewBox="0 0 5000 2916" style="enable-background:new 0 0 5000 2916;" xml:space="preserve">
<g>
	<rect style="fill-rule:evenodd;clip-rule:evenodd;fill:#FFFFFF;" width="5000" height="2916"/>
	<g>
		<defs>
			<path id="SVGID_1_" d="M1242.432,427.367c538.479,0,974.999,436.523,974.999,975.001c0,538.477-436.521,975-974.999,975
				s-974.999-436.523-974.999-975C267.432,863.891,703.953,427.367,1242.432,427.367"/>
		</defs>
		<clipPath id="SVGID_00000106114882398391361130000000705758729001113511_">
			<use xlink:href="#SVGID_1_"  style="overflow:visible;"/>
		</clipPath>
		
			<linearGradient id="SVGID_00000091715088832303548420000016824489236864466351_" gradientUnits="userSpaceOnUse" x1="531.7012" y1="1941.6796" x2="2231.7251" y2="651.6794">
			<stop  offset="0" style="stop-color:#DBDCDC"/>
			<stop  offset="1" style="stop-color:#FFFFFF"/>
		</linearGradient>
		
			<rect x="267.432" y="427.367" style="clip-path:url(#SVGID_00000106114882398391361130000000705758729001113511_);fill:url(#SVGID_00000091715088832303548420000016824489236864466351_);" width="1949.999" height="1950.002"/>
	</g>
	<g>
		<defs>
			<path id="SVGID_00000106119375050892496570000018119159779486092470_" d="M3862.433,507.368
				c538.477,0,975.001,436.522,975.001,975c0,538.478-436.524,975-975.001,975s-975.001-436.522-975.001-975
				C2887.432,943.889,3323.956,507.368,3862.433,507.368"/>
		</defs>
		<clipPath id="SVGID_00000153668363836564941820000005668465989589954432_">
			<use xlink:href="#SVGID_00000106119375050892496570000018119159779486092470_"  style="overflow:visible;"/>
		</clipPath>
		
			<linearGradient id="SVGID_00000039840401949977740590000000450927087171758511_" gradientUnits="userSpaceOnUse" x1="4303.2559" y1="712.8525" x2="3163.2664" y2="2702.855">
			<stop  offset="0" style="stop-color:#DBDCDC"/>
			<stop  offset="1" style="stop-color:#FFFFFF"/>
		</linearGradient>
		
			<rect x="2887.432" y="507.368" style="clip-path:url(#SVGID_00000153668363836564941820000005668465989589954432_);fill:url(#SVGID_00000039840401949977740590000000450927087171758511_);" width="1950.002" height="1950"/>
	</g>
	<g>
		<defs>
			<path id="SVGID_00000034801558125162660460000017552420856164742290_" d="M2639.934,107.367
				c189.157,0,342.503,153.343,342.503,342.502c0,189.158-153.346,342.502-342.503,342.502c-189.157,0-342.5-153.344-342.5-342.502
				C2297.434,260.71,2450.777,107.367,2639.934,107.367"/>
		</defs>
		<clipPath id="SVGID_00000176745064744168617770000013212428665803149998_">
			<use xlink:href="#SVGID_00000034801558125162660460000017552420856164742290_"  style="overflow:visible;"/>
		</clipPath>
		
			<linearGradient id="SVGID_00000065075709294944408350000011887560954059216269_" gradientUnits="userSpaceOnUse" x1="2794.7998" y1="179.5448" x2="2394.3235" y2="878.5955">
			<stop  offset="0" style="stop-color:#DBDCDC"/>
			<stop  offset="1" style="stop-color:#FFFFFF"/>
		</linearGradient>
		
			<rect x="2297.434" y="107.367" style="clip-path:url(#SVGID_00000176745064744168617770000013212428665803149998_);fill:url(#SVGID_00000065075709294944408350000011887560954059216269_);" width="685.003" height="685.003"/>
	</g>
	<g>
		<defs>
			<path id="SVGID_00000013186628833899814270000002432286432836031891_" d="M2355.294,1951.652
				c208.114,0,376.821,168.709,376.821,376.823c0,208.112-168.707,376.823-376.821,376.823
				c-208.114,0-376.821-168.71-376.821-376.823C1978.474,2120.361,2147.18,1951.652,2355.294,1951.652"/>
		</defs>
		<clipPath id="SVGID_00000028325452528322819820000003428563126843413394_">
			<use xlink:href="#SVGID_00000013186628833899814270000002432286432836031891_"  style="overflow:visible;"/>
		</clipPath>
		
			<linearGradient id="SVGID_00000050661900544398514480000009945437607356863878_" gradientUnits="userSpaceOnUse" x1="2080.6147" y1="2536.9136" x2="2737.6233" y2="2038.3453">
			<stop  offset="0" style="stop-color:#DBDCDC"/>
			<stop  offset="1" style="stop-color:#FFFFFF"/>
		</linearGradient>
		
			<rect x="1978.474" y="1951.652" style="clip-path:url(#SVGID_00000028325452528322819820000003428563126843413394_);fill:url(#SVGID_00000050661900544398514480000009945437607356863878_);" width="753.641" height="753.645"/>
	</g>
	<g>
		<defs>
			<path id="SVGID_00000182527344009756794700000017107173983161610378_" d="M3914.935,197.367
				c269.237,0,487.497,218.261,487.497,487.5s-218.261,487.5-487.497,487.5c-269.24,0-487.5-218.261-487.5-487.5
				S3645.695,197.367,3914.935,197.367"/>
		</defs>
		<clipPath id="SVGID_00000115484143027306791370000014536546615778518661_">
			<use xlink:href="#SVGID_00000182527344009756794700000017107173983161610378_"  style="overflow:visible;"/>
		</clipPath>
		
			<linearGradient id="SVGID_00000124860553128271890930000008061805459493755044_" gradientUnits="userSpaceOnUse" x1="4135.3462" y1="300.0973" x2="3565.3652" y2="1295.0991">
			<stop  offset="0" style="stop-color:#DBDCDC"/>
			<stop  offset="1" style="stop-color:#FFFFFF"/>
		</linearGradient>
		
			<rect x="3427.434" y="197.367" style="clip-path:url(#SVGID_00000115484143027306791370000014536546615778518661_);fill:url(#SVGID_00000124860553128271890930000008061805459493755044_);" width="974.998" height="975"/>
	</g>
	<g>
		<defs>
			<path id="SVGID_00000143608035048398498540000002964109851192056751_" d="M1682.433,904.868
				c269.242,0,487.502,218.261,487.502,487.5s-218.26,487.5-487.502,487.5c-269.239,0-487.499-218.261-487.499-487.5
				S1413.194,904.868,1682.433,904.868"/>
		</defs>
		<clipPath id="SVGID_00000183240039201748932000000016988135279805524644_">
			<use xlink:href="#SVGID_00000143608035048398498540000002964109851192056751_"  style="overflow:visible;"/>
		</clipPath>
		
			<linearGradient id="SVGID_00000174569533690592041420000000079143568375771577_" gradientUnits="userSpaceOnUse" x1="1902.8407" y1="1007.6088" x2="1332.8621" y2="2002.61">
			<stop  offset="0" style="stop-color:#DBDCDC"/>
			<stop  offset="1" style="stop-color:#FFFFFF"/>
		</linearGradient>
		
			<rect x="1194.934" y="904.868" style="clip-path:url(#SVGID_00000183240039201748932000000016988135279805524644_);fill:url(#SVGID_00000174569533690592041420000000079143568375771577_);" width="975.001" height="975"/>
	</g>
	
</g>
</svg>
